<svg width="100" height="20" viewBox="0 0 100 20" fill="none" xmlns="http://www.w3.org/2000/svg">
<path d="M3.06534 19H0.664773L7.60796 0.0909085H9.97159L16.9148 19H14.5142L8.86364 3.08239H8.71591L3.06534 19ZM3.9517 11.6136H13.6278V13.6449H3.9517V11.6136ZM21.7436 10.4688V19H19.5646V4.81818H21.6697V7.03409H21.8544C22.1868 6.31392 22.6915 5.73532 23.3686 5.2983C24.0457 4.85511 24.9197 4.63352 25.9908 4.63352C26.951 4.63352 27.7912 4.83049 28.5114 5.22443C29.2315 5.61222 29.7917 6.20312 30.1918 6.99716C30.5919 7.78504 30.7919 8.7822 30.7919 9.98864V19H28.6129V10.1364C28.6129 9.02225 28.3236 8.15436 27.745 7.53267C27.1664 6.90483 26.3724 6.59091 25.3629 6.59091C24.6674 6.59091 24.0457 6.74171 23.4979 7.04332C22.9562 7.34493 22.5284 7.78504 22.2145 8.36364C21.9006 8.94223 21.7436 9.64394 21.7436 10.4688ZM36.9526 10.4688V19H34.7736V4.81818H36.8787V7.03409H37.0634C37.3958 6.31392 37.9005 5.73532 38.5776 5.2983C39.2547 4.85511 40.1287 4.63352 41.1998 4.63352C42.16 4.63352 43.0002 4.83049 43.7203 5.22443C44.4405 5.61222 45.0007 6.20312 45.4007 6.99716C45.8008 7.78504 46.0009 8.7822 46.0009 9.98864V19H43.8219V10.1364C43.8219 9.02225 43.5326 8.15436 42.954 7.53267C42.3754 6.90483 41.5814 6.59091 40.5719 6.59091C39.8764 6.59091 39.2547 6.74171 38.7069 7.04332C38.1652 7.34493 37.7374 7.78504 37.4235 8.36364C37.1096 8.94223 36.9526 9.64394 36.9526 10.4688ZM55.9286 19.2955C54.5621 19.2955 53.3834 18.9938 52.3924 18.3906C51.4076 17.7812 50.6474 16.9318 50.1119 15.8423C49.5825 14.7467 49.3178 13.4725 49.3178 12.0199C49.3178 10.5672 49.5825 9.28693 50.1119 8.17898C50.6474 7.06487 51.3922 6.19697 52.3462 5.57528C53.3065 4.94744 54.4267 4.63352 55.707 4.63352C56.4457 4.63352 57.1751 4.75663 57.8952 5.00284C58.6154 5.24905 59.271 5.64915 59.8619 6.20312C60.4528 6.75095 60.9237 7.47727 61.2745 8.3821C61.6254 9.28693 61.8008 10.401 61.8008 11.7244V12.6477H50.869V10.7642H59.5849C59.5849 9.96401 59.4248 9.25 59.1048 8.62216C58.7908 7.99432 58.3415 7.49882 57.7567 7.13565C57.1781 6.77249 56.4949 6.59091 55.707 6.59091C54.8391 6.59091 54.0882 6.80634 53.4542 7.23722C52.8263 7.66193 52.3432 8.21591 52.0046 8.89915C51.6661 9.58239 51.4968 10.3149 51.4968 11.0966V12.3523C51.4968 13.4233 51.6815 14.3312 52.0508 15.076C52.4263 15.8146 52.9464 16.3778 53.6112 16.7656C54.2759 17.1473 55.0484 17.3381 55.9286 17.3381C56.5011 17.3381 57.0181 17.258 57.4798 17.098C57.9476 16.9318 58.3507 16.6856 58.6893 16.3594C59.0278 16.027 59.2894 15.6146 59.4741 15.1222L61.5792 15.7131C61.3576 16.4271 60.9852 17.0549 60.462 17.5966C59.9388 18.1321 59.2925 18.5507 58.5231 18.8523C57.7537 19.1477 56.8888 19.2955 55.9286 19.2955ZM71.283 4.81818V6.66477H63.9336V4.81818H71.283ZM66.0756 1.42045H68.2546V14.9375C68.2546 15.553 68.3439 16.0147 68.5224 16.3224C68.707 16.6241 68.9409 16.8272 69.2241 16.9318C69.5134 17.0303 69.8181 17.0795 70.1381 17.0795C70.3782 17.0795 70.5752 17.0672 70.729 17.0426C70.8829 17.0118 71.006 16.9872 71.0984 16.9688L71.5415 18.9261C71.3938 18.9815 71.1876 19.0369 70.9229 19.0923C70.6583 19.1539 70.3228 19.1847 69.9165 19.1847C69.301 19.1847 68.6978 19.0523 68.1069 18.7876C67.5221 18.523 67.0359 18.1198 66.6481 17.5781C66.2665 17.0365 66.0756 16.3532 66.0756 15.5284V1.42045ZM76.8967 13.8295L76.8597 11.1335H77.3029L83.5075 4.81818H86.2035L79.5927 11.5028H79.408L76.8967 13.8295ZM74.8654 19V0.0909085H77.0444V19H74.8654ZM83.8768 19L78.337 11.983L79.8881 10.4688L86.6467 19H83.8768ZM93.1813 19.3324C92.2826 19.3324 91.467 19.1631 90.7346 18.8246C90.0021 18.4799 89.4204 17.9844 88.9895 17.3381C88.5587 16.6856 88.3432 15.8977 88.3432 14.9744C88.3432 14.1619 88.5033 13.5033 88.8233 12.9986C89.1434 12.4877 89.5712 12.0876 90.1067 11.7983C90.6422 11.509 91.2331 11.2936 91.8794 11.152C92.5319 11.0043 93.1874 10.8873 93.8461 10.8011C94.7078 10.6903 95.4064 10.6072 95.9419 10.5518C96.4836 10.4903 96.8775 10.3887 97.1238 10.2472C97.3761 10.1056 97.5023 9.85937 97.5023 9.50852V9.43466C97.5023 8.52367 97.253 7.81581 96.7544 7.31108C96.262 6.80634 95.5141 6.55398 94.5108 6.55398C93.4706 6.55398 92.655 6.78172 92.0641 7.23722C91.4732 7.69271 91.0577 8.17898 90.8176 8.69602L88.7495 7.95739C89.1188 7.09564 89.6112 6.42472 90.2267 5.9446C90.8484 5.45833 91.5255 5.11979 92.258 4.92898C92.9966 4.73201 93.723 4.63352 94.437 4.63352C94.8925 4.63352 95.4157 4.68892 96.0066 4.79971C96.6036 4.90436 97.1792 5.12287 97.7331 5.45525C98.2933 5.78764 98.758 6.2893 99.1273 6.96023C99.4966 7.63115 99.6813 8.52983 99.6813 9.65625V19H97.5023V17.0795H97.3915C97.2438 17.3873 96.9976 17.7166 96.6529 18.0675C96.3082 18.4183 95.8496 18.7169 95.2772 18.9631C94.7047 19.2093 94.0061 19.3324 93.1813 19.3324ZM93.5137 17.375C94.3754 17.375 95.1017 17.2057 95.6926 16.8672C96.2897 16.5286 96.7391 16.0916 97.0407 15.5561C97.3484 15.0206 97.5023 14.4574 97.5023 13.8665V11.8722C97.41 11.983 97.2069 12.0845 96.8929 12.1768C96.5852 12.263 96.2282 12.34 95.8219 12.4077C95.4218 12.4692 95.031 12.5246 94.6493 12.5739C94.2739 12.617 93.9692 12.6539 93.7353 12.6847C93.169 12.7585 92.6396 12.8786 92.1472 13.0447C91.6609 13.2048 91.267 13.4479 90.9654 13.7741C90.6699 14.0942 90.5222 14.5312 90.5222 15.0852C90.5222 15.8423 90.8023 16.4148 91.3624 16.8026C91.9287 17.1842 92.6458 17.375 93.5137 17.375Z" fill="black"/>
</svg>
