<svg width="137" height="21" viewBox="0 0 137 21" fill="none" xmlns="http://www.w3.org/2000/svg">
<path d="M0.898438 19.9746C3.89453 13.4238 6.50977 7.54167 8.74414 2.32812H9.22656C11.5964 8.2526 14.0508 14.1432 16.5898 20C16.1328 19.9154 15.7181 19.873 15.3457 19.873C14.9564 19.873 14.5247 19.9154 14.0508 20C13.4245 18.0872 12.7051 16.166 11.8926 14.2363L11.4609 13.2207C10.7669 13.1868 9.72591 13.1699 8.33789 13.1699C6.93294 13.1699 5.88346 13.1868 5.18945 13.2207C4.39388 15.0319 3.52214 17.2917 2.57422 20C2.28646 19.9154 2.00716 19.873 1.73633 19.873C1.55013 19.873 1.27083 19.9069 0.898438 19.9746ZM5.62109 12.1035C5.72266 12.1035 5.98503 12.1035 6.4082 12.1035C6.83138 12.1204 7.21224 12.1289 7.55078 12.1289C7.80469 12.1289 8.3125 12.1204 9.07422 12.1035C9.83594 12.1035 10.4622 12.1035 10.9531 12.1035L10.5215 10.9863C10.3014 10.4108 9.57357 8.68424 8.33789 5.80664L5.62109 12.1035ZM18.6211 20C18.6888 19.0521 18.7227 17.5794 18.7227 15.582V13.7793C18.7227 11.1387 18.6888 9.21745 18.6211 8.01562C18.9427 8.08333 19.2897 8.11719 19.6621 8.11719C20.0514 8.11719 20.3815 8.08333 20.6523 8.01562C20.6185 8.625 20.6016 9.05664 20.6016 9.31055C20.6016 9.41211 20.61 9.56445 20.627 9.76758C20.627 9.9707 20.627 10.123 20.627 10.2246C21.5918 8.58268 22.9206 7.76172 24.6133 7.76172C27.3216 7.76172 28.6758 9.27669 28.6758 12.3066C28.6758 12.7298 28.6673 13.3561 28.6504 14.1855C28.6335 14.998 28.625 15.599 28.625 15.9883C28.625 17.2409 28.6504 18.5781 28.7012 20C28.3118 19.9154 27.9648 19.873 27.6602 19.873C27.3555 19.873 27.0085 19.9154 26.6191 20C26.7207 18.2227 26.7715 15.8275 26.7715 12.8145C26.7715 10.3092 25.8066 9.05664 23.877 9.05664C22.8783 9.05664 22.0911 9.42057 21.5156 10.1484C20.9401 10.8763 20.6523 12.1966 20.6523 14.1094V15.252C20.6523 17.554 20.6777 19.1367 20.7285 20C20.3392 19.9154 19.9837 19.873 19.6621 19.873C19.3574 19.873 19.0104 19.9154 18.6211 20ZM32.5098 20C32.5775 19.0521 32.6113 17.5794 32.6113 15.582V13.7793C32.6113 11.1387 32.5775 9.21745 32.5098 8.01562C32.8314 8.08333 33.1784 8.11719 33.5508 8.11719C33.9401 8.11719 34.2702 8.08333 34.541 8.01562C34.5072 8.625 34.4902 9.05664 34.4902 9.31055C34.4902 9.41211 34.4987 9.56445 34.5156 9.76758C34.5156 9.9707 34.5156 10.123 34.5156 10.2246C35.4805 8.58268 36.8092 7.76172 38.502 7.76172C41.2103 7.76172 42.5645 9.27669 42.5645 12.3066C42.5645 12.7298 42.556 13.3561 42.5391 14.1855C42.5221 14.998 42.5137 15.599 42.5137 15.9883C42.5137 17.2409 42.5391 18.5781 42.5898 20C42.2005 19.9154 41.8535 19.873 41.5488 19.873C41.2441 19.873 40.8971 19.9154 40.5078 20C40.6094 18.2227 40.6602 15.8275 40.6602 12.8145C40.6602 10.3092 39.6953 9.05664 37.7656 9.05664C36.7669 9.05664 35.9798 9.42057 35.4043 10.1484C34.8288 10.8763 34.541 12.1966 34.541 14.1094V15.252C34.541 17.554 34.5664 19.1367 34.6172 20C34.2279 19.9154 33.8724 19.873 33.5508 19.873C33.2461 19.873 32.8991 19.9154 32.5098 20ZM47.6426 12.9668H54.3203V12.5352C54.3203 11.2826 54.0326 10.3092 53.457 9.61523C52.8984 8.9043 52.1283 8.54883 51.1465 8.54883C50.1816 8.54883 49.3691 8.93815 48.709 9.7168C48.0488 10.5462 47.6934 11.6296 47.6426 12.9668ZM55.7168 18.7812C54.3965 19.7461 52.9577 20.2285 51.4004 20.2285C49.623 20.2285 48.1758 19.653 47.0586 18.502C45.9583 17.3509 45.4082 15.8613 45.4082 14.0332C45.4082 12.1374 45.9414 10.6224 47.0078 9.48828C48.0742 8.33724 49.4876 7.76172 51.248 7.76172C52.873 7.76172 54.1257 8.24414 55.0059 9.20898C55.903 10.1569 56.3516 11.5195 56.3516 13.2969C56.3516 13.3477 56.3516 13.4408 56.3516 13.5762C56.3346 13.6947 56.3262 13.7878 56.3262 13.8555H47.5918V13.9316C47.5918 17.4525 49.0137 19.2129 51.8574 19.2129C53.3132 19.2129 54.6165 18.6458 55.7676 17.5117C55.7337 17.9518 55.7168 18.2734 55.7168 18.4766V18.7812ZM57.6465 9.08203C57.6803 8.77734 57.6973 8.55729 57.6973 8.42188C57.6973 8.37109 57.6973 8.30339 57.6973 8.21875C57.6803 8.11719 57.6719 8.04948 57.6719 8.01562C58.2135 8.06641 58.7552 8.0918 59.2969 8.0918V7.25391C59.2969 6.71224 59.2799 6.0013 59.2461 5.12109C60.0417 4.98568 60.7188 4.77409 61.2773 4.48633C61.2266 5.56966 61.2012 6.23828 61.2012 6.49219V8.16797C62.1322 8.16797 63.2324 8.11719 64.502 8.01562C64.4512 8.26953 64.4258 8.54883 64.4258 8.85352V9.05664C63.5117 9.00586 62.7331 8.98047 62.0898 8.98047C61.6667 8.98047 61.362 8.98893 61.1758 9.00586L61.125 10.2754C61.125 10.7663 61.1081 11.6634 61.0742 12.9668C61.0404 14.2702 61.0234 15.3366 61.0234 16.166C61.0234 17.3001 61.1842 18.1211 61.5059 18.6289C61.8275 19.1198 62.3776 19.3652 63.1562 19.3652C63.5964 19.3652 64.1888 19.1875 64.9336 18.832L65.1113 19.3906C64.248 19.9661 63.3255 20.2539 62.3438 20.2539C61.1758 20.2539 60.3464 19.9831 59.8555 19.4414C59.3646 18.8828 59.1191 17.9941 59.1191 16.7754C59.1191 16.5215 59.1361 15.6328 59.1699 14.1094C59.2207 12.569 59.2461 11.1556 59.2461 9.86914V9.00586H58.9668C58.5436 9.00586 58.1035 9.03125 57.6465 9.08203ZM66.6348 20C66.7194 16.7331 66.7617 13.5592 66.7617 10.4785C66.7617 6.82227 66.7194 3.64844 66.6348 0.957031C67.1087 1.02474 67.4642 1.05859 67.7012 1.05859C67.9382 1.05859 68.2936 1.02474 68.7676 0.957031C68.666 5.08724 68.6152 8.73503 68.6152 11.9004V12.7637C68.6152 13.0514 68.7591 13.1953 69.0469 13.1953C69.3177 13.1953 69.9102 12.7721 70.8242 11.9258C71.9076 10.9271 73.084 9.6237 74.3535 8.01562C74.7428 8.06641 75.1152 8.0918 75.4707 8.0918C75.8431 8.0918 76.2155 8.06641 76.5879 8.01562C75.9108 8.47266 74.8105 9.42057 73.2871 10.8594L71.002 13.0176C72.2376 14.4395 74.2266 16.7669 76.9688 20C76.5456 19.9323 76.0716 19.8984 75.5469 19.8984C75.056 19.8984 74.6159 19.9323 74.2266 20C71.1289 15.8021 69.3431 13.7031 68.8691 13.7031C68.6999 13.7031 68.6152 13.8216 68.6152 14.0586V15.4805C68.6152 16.9023 68.666 18.4089 68.7676 20C68.3783 19.9154 68.0228 19.873 67.7012 19.873C67.3796 19.873 67.0241 19.9154 66.6348 20ZM85.1953 18.5273C84.112 19.6615 82.8509 20.2285 81.4121 20.2285C79.0762 20.2285 77.9082 19.1875 77.9082 17.1055C77.9082 15.3281 78.89 14.2279 80.8535 13.8047C81.7845 13.6185 82.724 13.4323 83.6719 13.2461C84.4674 13.0768 85.0007 12.8737 85.2715 12.6367V12.1035C85.2715 10.9694 85.0514 10.1315 84.6113 9.58984C84.1882 9.04818 83.4688 8.77734 82.4531 8.77734C81.0651 8.77734 79.9733 9.37826 79.1777 10.5801H78.9746L79.0254 9.23438C80.1595 8.28646 81.5221 7.8125 83.1133 7.8125C84.5352 7.8125 85.5592 8.15951 86.1855 8.85352C86.8118 9.5306 87.125 10.6055 87.125 12.0781V12.3828L87.0234 17.4355C87.0234 18.0111 87.0658 18.4004 87.1504 18.6035C87.3027 18.9421 87.6328 19.1113 88.1406 19.1113C88.3268 19.1113 88.4707 19.1029 88.5723 19.0859L88.6738 19.5938C87.7598 19.8646 87.0658 20 86.5918 20C85.8132 20 85.3477 19.5091 85.1953 18.5273ZM85.2207 13.7031C83.2233 14.0417 81.8945 14.3802 81.2344 14.7188C80.4049 15.1419 79.9902 15.8275 79.9902 16.7754C79.9902 18.3835 80.7435 19.1875 82.25 19.1875C83.1979 19.1875 84.0443 18.8151 84.7891 18.0703C85.0768 17.7826 85.2207 17.4186 85.2207 16.9785V13.7031ZM91.2891 18.832C91.2891 18.4427 91.4245 18.1126 91.6953 17.8418C91.9831 17.554 92.3216 17.4102 92.7109 17.4102C93.1003 17.4102 93.4303 17.554 93.7012 17.8418C93.9889 18.1126 94.1328 18.4427 94.1328 18.832C94.1328 19.2044 93.9889 19.5345 93.7012 19.8223C93.4303 20.0931 93.1003 20.2285 92.7109 20.2285C92.3216 20.2285 91.9831 20.0931 91.6953 19.8223C91.4245 19.5514 91.2891 19.2214 91.2891 18.832ZM98.0938 20C98.1784 16.1745 98.2207 13.0007 98.2207 10.4785C98.2207 7.46549 98.1784 4.29167 98.0938 0.957031C98.6016 1.02474 98.957 1.05859 99.1602 1.05859C99.4141 1.05859 99.7611 1.02474 100.201 0.957031C100.133 2.85286 100.1 4.74023 100.1 6.61914C100.1 7.31315 100.117 8.47266 100.15 10.0977C101.183 8.55729 102.495 7.78711 104.086 7.78711C106.794 7.78711 108.148 9.25977 108.148 12.2051C108.148 12.5267 108.132 13.1276 108.098 14.0078C108.081 14.8711 108.072 15.5736 108.072 16.1152C108.072 16.4368 108.106 17.7318 108.174 20C107.801 19.9154 107.454 19.873 107.133 19.873C106.828 19.873 106.481 19.9154 106.092 20C106.176 16.9023 106.219 14.651 106.219 13.2461C106.219 11.7904 105.999 10.7324 105.559 10.0723C105.118 9.39518 104.374 9.05664 103.324 9.05664C102.089 9.05664 101.183 9.61523 100.607 10.7324C100.269 11.3926 100.1 12.8906 100.1 15.2266V17.0293C100.1 17.6387 100.125 18.6289 100.176 20C99.7865 19.9154 99.431 19.873 99.1094 19.873C98.8047 19.873 98.4661 19.9154 98.0938 20ZM118.229 18.5273C117.145 19.6615 115.884 20.2285 114.445 20.2285C112.109 20.2285 110.941 19.1875 110.941 17.1055C110.941 15.3281 111.923 14.2279 113.887 13.8047C114.818 13.6185 115.757 13.4323 116.705 13.2461C117.501 13.0768 118.034 12.8737 118.305 12.6367V12.1035C118.305 10.9694 118.085 10.1315 117.645 9.58984C117.221 9.04818 116.502 8.77734 115.486 8.77734C114.098 8.77734 113.007 9.37826 112.211 10.5801H112.008L112.059 9.23438C113.193 8.28646 114.555 7.8125 116.146 7.8125C117.568 7.8125 118.592 8.15951 119.219 8.85352C119.845 9.5306 120.158 10.6055 120.158 12.0781V12.3828L120.057 17.4355C120.057 18.0111 120.099 18.4004 120.184 18.6035C120.336 18.9421 120.666 19.1113 121.174 19.1113C121.36 19.1113 121.504 19.1029 121.605 19.0859L121.707 19.5938C120.793 19.8646 120.099 20 119.625 20C118.846 20 118.381 19.5091 118.229 18.5273ZM118.254 13.7031C116.257 14.0417 114.928 14.3802 114.268 14.7188C113.438 15.1419 113.023 15.8275 113.023 16.7754C113.023 18.3835 113.777 19.1875 115.283 19.1875C116.231 19.1875 117.077 18.8151 117.822 18.0703C118.11 17.7826 118.254 17.4186 118.254 16.9785V13.7031ZM124.119 3.59766C124.119 3.24219 124.246 2.94596 124.5 2.70898C124.754 2.45508 125.059 2.32812 125.414 2.32812C125.77 2.32812 126.074 2.45508 126.328 2.70898C126.582 2.94596 126.709 3.24219 126.709 3.59766C126.709 3.95312 126.582 4.25781 126.328 4.51172C126.074 4.76562 125.77 4.89258 125.414 4.89258C125.059 4.89258 124.754 4.76562 124.5 4.51172C124.246 4.25781 124.119 3.95312 124.119 3.59766ZM124.373 20C124.458 17.681 124.5 15.582 124.5 13.7031C124.5 11.9766 124.458 10.0807 124.373 8.01562C124.695 8.08333 125.042 8.11719 125.414 8.11719C125.82 8.11719 126.167 8.08333 126.455 8.01562C126.37 10.0977 126.328 11.9935 126.328 13.7031C126.328 15.582 126.37 17.681 126.455 20C126.083 19.9154 125.736 19.873 125.414 19.873C125.109 19.873 124.762 19.9154 124.373 20ZM130.441 19.9746C130.526 17.9772 130.568 15.2181 130.568 11.6973C130.568 10.1569 130.526 8.92969 130.441 8.01562C130.78 8.08333 131.144 8.11719 131.533 8.11719C131.923 8.11719 132.278 8.08333 132.6 8.01562C132.498 8.82812 132.447 9.75911 132.447 10.8086C133.361 8.86198 134.419 7.88867 135.621 7.88867C135.807 7.88867 136.129 7.93099 136.586 8.01562C136.501 8.45573 136.459 9.09896 136.459 9.94531L136.256 10.0723C135.833 9.85221 135.426 9.74219 135.037 9.74219C134.089 9.74219 133.404 10.1569 132.98 10.9863C132.574 11.8158 132.371 13.1107 132.371 14.8711C132.371 17.0208 132.413 18.7305 132.498 20C132.176 19.9323 131.812 19.8984 131.406 19.8984C131.102 19.8984 130.78 19.9238 130.441 19.9746Z" fill="black"/>
</svg>
